<svg viewBox="0 0 920 520" xmlns="http://www.w3.org/2000/svg" style="width:100%;max-width:920px;margin:0 auto;display:block;background:#0e1117;">
  <defs>
    <marker id="arr2" viewBox="0 0 10 10" refX="10" refY="5" markerWidth="5" markerHeight="5" orient="auto-start-reverse">
      <path d="M 0 0 L 10 5 L 0 10 z" fill="#64B5F6"/>
    </marker>
  </defs>

  <rect x="30" y="10" width="200" height="40" rx="8" fill="#5D4037" opacity="0.9"/>
  <text x="130" y="35" fill="white" font-size="11" font-family="sans-serif" text-anchor="middle" font-weight="bold">RAW_TRADES (VARIANT)</text>

  <rect x="350" y="10" width="200" height="40" rx="8" fill="#5D4037" opacity="0.9"/>
  <text x="450" y="35" fill="white" font-size="11" font-family="sans-serif" text-anchor="middle" font-weight="bold">RAW_NEWS (VARIANT)</text>

  <rect x="670" y="10" width="220" height="40" rx="8" fill="#4527A0" opacity="0.85"/>
  <text x="780" y="28" fill="white" font-size="10.5" font-family="sans-serif" text-anchor="middle" font-weight="bold">Snowflake Marketplace</text>
  <text x="780" y="44" fill="#B39DDB" font-size="9.5" font-family="sans-serif" text-anchor="middle">Mag7 + SPY + CPI + Treasury</text>

  <line x1="130" y1="50" x2="130" y2="82" stroke="#64B5F6" stroke-width="1.5" marker-end="url(#arr2)"/>
  <line x1="450" y1="50" x2="450" y2="82" stroke="#64B5F6" stroke-width="1.5" marker-end="url(#arr2)"/>
  <line x1="780" y1="50" x2="780" y2="82" stroke="#64B5F6" stroke-width="1.5" stroke-dasharray="5,3" marker-end="url(#arr2)"/>

  <text x="160" y="72" fill="#90CAF9" font-size="9" font-family="sans-serif">1 min</text>
  <text x="480" y="72" fill="#90CAF9" font-size="9" font-family="sans-serif">1 min</text>
  <text x="810" y="72" fill="#90CAF9" font-size="9" font-family="sans-serif">1 day</text>

  <rect x="30" y="85" width="200" height="36" rx="7" fill="#455A64" opacity="0.9"/>
  <text x="130" y="108" fill="#E0E0E0" font-size="11" font-family="sans-serif" text-anchor="middle" font-weight="bold">DAILY_OHLCV</text>

  <rect x="350" y="85" width="200" height="36" rx="7" fill="#455A64" opacity="0.9"/>
  <text x="450" y="108" fill="#E0E0E0" font-size="11" font-family="sans-serif" text-anchor="middle" font-weight="bold">NEWS_FLATTENED</text>

  <rect x="670" y="85" width="105" height="36" rx="7" fill="#455A64" opacity="0.9"/>
  <text x="722" y="108" fill="#E0E0E0" font-size="10" font-family="sans-serif" text-anchor="middle">MACRO_CPI</text>

  <rect x="785" y="85" width="105" height="36" rx="7" fill="#455A64" opacity="0.9"/>
  <text x="837" y="108" fill="#E0E0E0" font-size="10" font-family="sans-serif" text-anchor="middle">TREASURY_10Y</text>

  <line x1="70" y1="121" x2="70" y2="165" stroke="#64B5F6" stroke-width="1.5" marker-end="url(#arr2)"/>
  <line x1="130" y1="121" x2="130" y2="165" stroke="#64B5F6" stroke-width="1.5" marker-end="url(#arr2)"/>
  <line x1="190" y1="121" x2="190" y2="165" stroke="#64B5F6" stroke-width="1.5" marker-end="url(#arr2)"/>
  <line x1="450" y1="121" x2="450" y2="165" stroke="#64B5F6" stroke-width="1.5" marker-end="url(#arr2)"/>
  <text x="470" y="148" fill="#90CAF9" font-size="9" font-family="sans-serif">5 min</text>

  <rect x="10" y="168" width="120" height="36" rx="7" fill="#546E7A" opacity="0.9"/>
  <text x="70" y="191" fill="#E0E0E0" font-size="10" font-family="sans-serif" text-anchor="middle">DAILY_RETURNS</text>

  <rect x="140" y="168" width="75" height="36" rx="7" fill="#546E7A" opacity="0.9"/>
  <text x="177" y="191" fill="#E0E0E0" font-size="10" font-family="sans-serif" text-anchor="middle">MA</text>

  <rect x="225" y="168" width="75" height="36" rx="7" fill="#546E7A" opacity="0.9"/>
  <text x="262" y="191" fill="#E0E0E0" font-size="10" font-family="sans-serif" text-anchor="middle">RSI_14</text>

  <rect x="370" y="168" width="160" height="36" rx="7" fill="#546E7A" opacity="0.9" stroke="#7E57C2" stroke-width="1"/>
  <text x="450" y="185" fill="#CE93D8" font-size="10" font-family="sans-serif" text-anchor="middle" font-weight="bold">NEWS_SENTIMENT</text>
  <text x="450" y="198" fill="#B39DDB" font-size="8.5" font-family="sans-serif" text-anchor="middle">Cortex CTE</text>

  <rect x="670" y="168" width="105" height="36" rx="7" fill="#546E7A" opacity="0.9"/>
  <text x="722" y="185" fill="#E0E0E0" font-size="9.5" font-family="sans-serif" text-anchor="middle">STOCK_PRICES</text>
  <text x="722" y="198" fill="#B0BEC5" font-size="8.5" font-family="sans-serif" text-anchor="middle">Mag7 + SPY</text>

  <rect x="785" y="168" width="105" height="36" rx="7" fill="#546E7A" opacity="0.9"/>
  <text x="837" y="191" fill="#E0E0E0" font-size="9.5" font-family="sans-serif" text-anchor="middle">STOCK_MONTHLY</text>

  <line x1="70" y1="204" x2="70" y2="250" stroke="#64B5F6" stroke-width="1.2"/>
  <line x1="70" y1="250" x2="130" y2="280" stroke="#64B5F6" stroke-width="1.2" marker-end="url(#arr2)"/>
  <line x1="177" y1="204" x2="177" y2="250" stroke="#64B5F6" stroke-width="1.2"/>
  <line x1="177" y1="250" x2="130" y2="280" stroke="#64B5F6" stroke-width="1.2"/>

  <line x1="410" y1="204" x2="380" y2="280" stroke="#64B5F6" stroke-width="1.2" marker-end="url(#arr2)"/>
  <line x1="490" y1="204" x2="530" y2="280" stroke="#64B5F6" stroke-width="1.2" marker-end="url(#arr2)"/>

  <line x1="722" y1="204" x2="722" y2="248" stroke="#64B5F6" stroke-width="1.2"/>
  <line x1="130" y1="204" x2="130" y2="248" stroke="#64B5F6" stroke-width="1.2" stroke-dasharray="4,3"/>
  <line x1="130" y1="248" x2="722" y2="248" stroke="#64B5F6" stroke-width="0.8" stroke-dasharray="4,3" opacity="0.4"/>
  <line x1="722" y1="248" x2="722" y2="280" stroke="#64B5F6" stroke-width="1.2" marker-end="url(#arr2)"/>

  <line x1="837" y1="204" x2="837" y2="280" stroke="#64B5F6" stroke-width="1.2" marker-end="url(#arr2)"/>

  <rect x="30" y="275" width="870" height="10" rx="3" fill="#F57F17" opacity="0.2"/>

  <rect x="50" y="283" width="160" height="40" rx="8" fill="#F57F17" opacity="0.85"/>
  <text x="130" y="308" fill="white" font-size="11" font-family="sans-serif" text-anchor="middle" font-weight="bold">TICKER_SUMMARY</text>

  <rect x="310" y="283" width="160" height="40" rx="8" fill="#F57F17" opacity="0.85"/>
  <text x="390" y="302" fill="white" font-size="10" font-family="sans-serif" text-anchor="middle" font-weight="bold">SENTIMENT_SUMMARY</text>

  <rect x="480" y="283" width="170" height="40" rx="8" fill="#F57F17" opacity="0.85"/>
  <text x="565" y="302" fill="white" font-size="10" font-family="sans-serif" text-anchor="middle" font-weight="bold">SENTIMENT_MOMENTUM</text>
  <text x="565" y="316" fill="#FFF8E1" font-size="8.5" font-family="sans-serif" text-anchor="middle">7d hype detection</text>

  <rect x="660" y="283" width="105" height="40" rx="8" fill="#F57F17" opacity="0.85"/>
  <text x="712" y="302" fill="white" font-size="10" font-family="sans-serif" text-anchor="middle" font-weight="bold">TICKER_BETA</text>
  <text x="712" y="316" fill="#FFF8E1" font-size="8.5" font-family="sans-serif" text-anchor="middle">vs SPY (60d)</text>

  <rect x="775" y="283" width="120" height="40" rx="8" fill="#F57F17" opacity="0.85"/>
  <text x="835" y="302" fill="white" font-size="10" font-family="sans-serif" text-anchor="middle" font-weight="bold">MACRO_OVERVIEW</text>
  <text x="835" y="316" fill="#FFF8E1" font-size="8.5" font-family="sans-serif" text-anchor="middle">CPI + Treasury</text>

  <text x="30" y="350" fill="#FFB300" font-size="12" font-family="sans-serif" font-weight="bold">GOLD LAYER</text>
  <text x="160" y="350" fill="#FFE082" font-size="10" font-family="sans-serif">Dashboard-ready — auto-refresh cascade</text>

  <rect x="30" y="380" width="860" height="130" rx="10" fill="#1a1a2e" opacity="0.6" stroke="#2a2a4e" stroke-width="1"/>
  <text x="50" y="400" fill="#B0BEC5" font-size="11" font-family="sans-serif" font-weight="bold">Legend</text>

  <rect x="50" y="412" width="14" height="14" rx="3" fill="#5D4037"/>
  <text x="72" y="424" fill="#BCAAA4" font-size="10" font-family="sans-serif">RAW (VARIANT JSON)</text>

  <rect x="50" y="434" width="14" height="14" rx="3" fill="#455A64"/>
  <text x="72" y="446" fill="#B0BEC5" font-size="10" font-family="sans-serif">ANALYTICS (Typed + Computed)</text>

  <rect x="50" y="456" width="14" height="14" rx="3" fill="#F57F17"/>
  <text x="72" y="468" fill="#FFE082" font-size="10" font-family="sans-serif">GOLD (Dashboard-Ready)</text>

  <rect x="50" y="478" width="14" height="14" rx="3" fill="#4527A0"/>
  <text x="72" y="490" fill="#B39DDB" font-size="10" font-family="sans-serif">Snowflake Marketplace (Secure Data Sharing)</text>

  <line x1="350" y1="419" x2="400" y2="419" stroke="#64B5F6" stroke-width="1.5" marker-end="url(#arr2)"/>
  <text x="410" y="424" fill="#90CAF9" font-size="10" font-family="sans-serif">Dynamic Table dependency</text>

  <line x1="350" y1="441" x2="400" y2="441" stroke="#64B5F6" stroke-width="1.5" stroke-dasharray="5,3" marker-end="url(#arr2)"/>
  <text x="410" y="446" fill="#90CAF9" font-size="10" font-family="sans-serif">Cross-layer join (DAILY_OHLCV + SPY → BETA)</text>

  <rect x="348" y="458" width="16" height="12" rx="2" fill="none" stroke="#7E57C2" stroke-width="1"/>
  <text x="372" y="468" fill="#CE93D8" font-size="10" font-family="sans-serif">Cortex LLM (SENTIMENT + SUMMARIZE)</text>
</svg>